<svg width="50" height="50" viewBox="0 0 50 50" fill="none" xmlns="http://www.w3.org/2000/svg">
<circle cx="25" cy="25" r="24.5" stroke="#B18CFF"/>
<g clip-path="url(#clip0_6_720)">
<path d="M37 25C37 18.3726 31.6274 13 25 13C18.3726 13 13 18.3726 13 25C13 30.9895 17.3882 35.954 23.125 36.8542V28.4688H20.0781V25H23.125V22.3563C23.125 19.3488 24.9166 17.6875 27.6576 17.6875C28.9701 17.6875 30.3438 17.9219 30.3438 17.9219V20.875H28.8306C27.34 20.875 26.875 21.8001 26.875 22.75V25H30.2031L29.6711 28.4688H26.875V36.8542C32.6118 35.954 37 30.9895 37 25Z" fill="#B18CFF"/>
<path d="M29.6711 28.4688L30.2031 25H26.875V22.75C26.875 21.801 27.34 20.875 28.8306 20.875H30.3438V17.9219C30.3438 17.9219 28.9705 17.6875 27.6576 17.6875C24.9166 17.6875 23.125 19.3488 23.125 22.3563V25H20.0781V28.4688H23.125V36.8542C24.3674 37.0486 25.6326 37.0486 26.875 36.8542V28.4688H29.6711Z" fill="#181818"/>
</g>
<defs>
<clipPath id="clip0_6_720">
<rect width="24" height="24" fill="white" transform="translate(13 13)"/>
</clipPath>
</defs>
</svg>
