<svg width="50" height="50" viewBox="0 0 50 50" fill="none" xmlns="http://www.w3.org/2000/svg">
<circle cx="25" cy="25" r="24.5" stroke="#B18CFF"/>
<path d="M20.5475 34.7508C29.6042 34.7508 34.5578 27.2474 34.5578 20.7405C34.5578 20.5274 34.5578 20.3152 34.5434 20.104C35.507 19.407 36.3389 18.5439 37 17.5552C36.1014 17.9536 35.148 18.2148 34.1718 18.33C35.1998 17.7146 35.9692 16.7467 36.3366 15.6064C35.3701 16.18 34.3126 16.5843 33.2099 16.8016C32.4675 16.0122 31.4856 15.4895 30.4162 15.3143C29.3468 15.1392 28.2494 15.3214 27.294 15.8327C26.3385 16.344 25.5782 17.156 25.1307 18.143C24.6833 19.13 24.5735 20.2369 24.8186 21.2925C22.8609 21.1943 20.9458 20.6856 19.1975 19.7992C17.4492 18.9129 15.9068 17.6689 14.6704 16.1479C14.0407 17.2319 13.8479 18.5151 14.1311 19.7363C14.4143 20.9575 15.1523 22.0248 16.1949 22.721C15.4112 22.698 14.6446 22.4866 13.96 22.1047V22.1671C13.9603 23.3039 14.3539 24.4057 15.0739 25.2854C15.7939 26.1652 16.7961 26.7689 17.9104 26.994C17.1855 27.1917 16.4249 27.2206 15.687 27.0784C16.0018 28.0568 16.6144 28.9123 17.4392 29.5254C18.264 30.1385 19.2598 30.4785 20.2874 30.498C19.2664 31.3004 18.0973 31.8938 16.8469 32.244C15.5964 32.5942 14.2892 32.6944 13 32.5389C15.2518 33.9839 17.8719 34.7504 20.5475 34.7469" fill="#B18CFF"/>
</svg>
